<?xml version="1.0" encoding="UTF-8"?>
<svg width="618px" height="580px" viewBox="0 0 618 580" version="1.1" xmlns="http://www.w3.org/2000/svg" xmlns:xlink="http://www.w3.org/1999/xlink">
    <title>Empty state illustration</title>
    <defs>
        <path d="M4.95225709,131.139 C4.95225709,202.718 62.9782571,260.744 134.557257,260.744 L134.557257,260.744 C206.135257,260.744 264.266257,202.718 264.266257,131.139 L264.266257,131.139 C264.266257,-1.175 291.937257,0.639 134.557257,1.535 L134.557257,1.535 C110.439257,1.672 90.5222571,1.226 74.1052571,0.78 L74.1052571,0.78 C59.7412571,0.39 48.0652571,0 38.5882571,0 L38.5882571,0 C-19.0387429,0 4.95225709,14.445 4.95225709,131.139 L4.95225709,131.139 Z" id="path-1"></path>
        <path d="M-2.13162821e-14,84.186 C-2.13162821e-14,130.606 37.765,168.372 84.185,168.372 L84.185,168.372 C130.605,168.372 168.371,130.606 168.371,84.186 L168.371,84.186 C168.371,4.465 168.371,5.68434189e-14 84.185,5.68434189e-14 L84.185,5.68434189e-14 C37.765,5.68434189e-14 -2.13162821e-14,37.766 -2.13162821e-14,84.186 L-2.13162821e-14,84.186 Z" id="path-3"></path>
        <polygon id="path-5" points="-5.68434189e-14 0 86.647 0 86.647 86.6477 -5.68434189e-14 86.6477"></polygon>
    </defs>
    <g id="Empty-state-illustration" stroke="none" stroke-width="1" fill="none" fill-rule="evenodd">
        <g id="Group-121" transform="translate(24.000000, 47.000000)">
            <g id="Group-25">
                <path d="M359.6979,75.6711 C415.0279,87.1681 465.6439,100.4231 496.0769,129.1771 C526.4369,158.0571 536.6149,202.4361 515.7119,239.2331 C494.9139,275.9861 443.0729,304.9511 415.8909,351.6921 C388.6759,398.3521 386.1919,462.6631 359.9079,476.8661 C333.5189,491.1131 292.9449,481.4361 254.5809,447.0021 C217.3939,415.1511 191.4999,366.3391 128.1769,356.0101 C94.7309,350.6001 69.2059,345.5801 57.3559,311.8191 C45.4719,277.9761 57.5079,233.4851 82.6199,187.1221 C107.8369,140.7151 146.0259,92.4801 195.1569,73.4161 C244.3609,54.2281 304.3339,64.0931 359.6979,75.6711" id="Fill-1" fill="#DEDEDE"></path>
                <polyline id="Stroke-3" stroke="#000000" stroke-width="3" points="360.9852 458.4743 333.9962 258.6443 522.2062 169.3653"></polyline>
                <polyline id="Stroke-5" stroke="#000000" stroke-width="3" points="131.5576 85.685 333.9966 258.645 101.0256 279.061"></polyline>
                <path d="M465.2068,258.6445 C465.2068,331.1105 406.4618,389.8555 333.9958,389.8555 C261.5308,389.8555 202.7858,331.1105 202.7858,258.6445 C202.7858,186.1785 261.5308,127.4335 333.9958,127.4335 C406.4618,127.4335 465.2068,186.1785 465.2068,258.6445" id="Fill-7" fill="#FFFFFF"></path>
                <path d="M465.2068,258.6445 C465.2068,331.1105 406.4618,389.8555 333.9958,389.8555 C261.5308,389.8555 202.7858,331.1105 202.7858,258.6445 C202.7858,186.1785 261.5308,127.4335 333.9958,127.4335 C406.4618,127.4335 465.2068,186.1785 465.2068,258.6445 Z" id="Stroke-9" stroke="#EE0000" stroke-width="3" stroke-linecap="round" stroke-linejoin="round"></path>
                <path d="M550.7048,169.3649 C550.7048,185.1049 537.9458,197.8639 522.2058,197.8639 C506.4658,197.8639 493.7068,185.1049 493.7068,169.3649 C493.7068,153.6249 506.4658,140.8659 522.2058,140.8659 C537.9458,140.8659 550.7048,153.6249 550.7048,169.3649" id="Fill-11" fill="#A9A9A9"></path>
                <path d="M217.243,85.685 C217.243,133.008 178.88,171.37 131.558,171.37 C84.235,171.37 45.872,133.008 45.872,85.685 C45.872,38.362 84.235,0 131.558,0 C178.88,0 217.243,38.362 217.243,85.685" id="Fill-13" fill="#FFFFFF"></path>
                <path d="M217.243,85.685 C217.243,133.008 178.88,171.37 131.558,171.37 C84.235,171.37 45.872,133.008 45.872,85.685 C45.872,38.362 84.235,0 131.558,0 C178.88,0 217.243,38.362 217.243,85.685 Z" id="Stroke-15" stroke="#EE0000" stroke-width="3" stroke-linecap="round" stroke-linejoin="round"></path>
                <path d="M0,275.6516 C0,267.4946 6.612,260.8826 14.769,260.8826 C16.127,260.8826 17.442,261.0696 18.691,261.4136 C21.355,251.6996 30.242,244.5596 40.802,244.5596 C50.532,244.5596 58.841,250.6236 62.171,259.1756 C70.209,259.8446 76.525,266.5756 76.525,274.7866 C76.525,283.4406 69.509,290.4566 60.854,290.4566 C60.513,290.4566 60.176,290.4416 59.84,290.4206 L40.803,290.4206 C40.803,290.4206 40.802,290.4206 40.802,290.4206 C40.801,290.4206 40.801,290.4206 40.8,290.4206 L14.77,290.4206 C14.77,290.4206 14.769,290.4206 14.769,290.4206 C14.768,290.4206 14.768,290.4206 14.767,290.4206 L13.779,290.4206 L13.778,290.3836 C6.084,289.8736 0,283.4746 0,275.6516" id="Fill-17" fill="#EE0000"></path>
                <path d="M31.994,333.4466 C31.934,333.4466 31.876,333.4426 31.818,333.4366 C22.909,333.2086 15.686,325.8156 15.686,316.8866 C15.686,308.3656 22.257,301.2496 30.598,300.4136 C31.765,286.6726 42.909,275.5376 56.694,274.4316 C63.55,260.4506 77.904,251.4676 93.515,251.4676 C111.105,251.4676 126.943,262.9696 132.439,279.5866 C132.63,279.5816 132.823,279.5786 133.015,279.5786 C147.867,279.5786 159.949,291.6606 159.949,306.5116 C159.949,321.2616 147.975,333.3226 133.237,333.4426 C133.202,333.4456 133.168,333.4466 133.133,333.4466 L31.994,333.4466 Z" id="Fill-19" fill="#FFFFFF"></path>
                <path d="M93.5144,249.9667 C77.6154,249.9667 62.9754,258.9557 55.7264,273.0157 C48.8934,273.7547 42.5344,276.8137 37.6614,281.7417 C32.9834,286.4717 30.0424,292.5527 29.2274,299.0867 C20.7194,300.5377 14.1864,308.0127 14.1864,316.8867 C14.1864,326.6087 22.0374,334.6597 31.7304,334.9347 C31.8174,334.9427 31.9054,334.9457 31.9944,334.9457 L32.2244,334.9457 C32.2314,334.9467 32.2384,334.9467 32.2454,334.9467 C32.2524,334.9467 32.2594,334.9467 32.2664,334.9457 L93.4934,334.9457 C93.5004,334.9467 93.5074,334.9467 93.5144,334.9467 C93.5214,334.9467 93.5284,334.9467 93.5354,334.9457 L132.9944,334.9457 C133.0014,334.9467 133.0084,334.9467 133.0154,334.9467 C133.0224,334.9467 133.0294,334.9467 133.0364,334.9457 L133.1334,334.9457 C133.1844,334.9457 133.2354,334.9447 133.2864,334.9427 C148.8284,334.7957 161.4494,322.0707 161.4494,306.5127 C161.4494,290.9977 148.9594,278.3447 133.5054,278.0827 C130.7284,270.3857 125.6834,263.5127 119.1234,258.5497 C111.7004,252.9347 102.8454,249.9667 93.5144,249.9667 M93.5144,252.9667 C111.3894,252.9667 126.4884,264.8447 131.3554,281.1377 C131.9044,281.1027 132.4564,281.0787 133.0154,281.0787 C147.0624,281.0787 158.4494,292.4657 158.4494,306.5127 C158.4494,320.5197 147.1254,331.8797 133.1334,331.9437 L133.1334,331.9457 L133.0174,331.9457 C133.0164,331.9457 133.0164,331.9467 133.0154,331.9467 C133.0144,331.9467 133.0134,331.9457 133.0134,331.9457 L93.5184,331.9457 C93.5174,331.9457 93.5154,331.9467 93.5144,331.9467 C93.5134,331.9467 93.5114,331.9457 93.5104,331.9457 L32.2474,331.9457 C32.2464,331.9457 32.2464,331.9467 32.2454,331.9467 C32.2444,331.9467 32.2444,331.9457 32.2434,331.9457 L31.9944,331.9457 L31.9944,331.9397 C23.7934,331.8047 17.1864,325.1197 17.1864,316.8867 C17.1864,308.6477 23.8044,301.9577 32.0144,301.8337 C32.5214,287.8257 43.7024,276.5417 57.6684,275.8727 C63.9354,262.3487 77.6284,252.9667 93.5144,252.9667" id="Fill-21" fill="#DEDEDE"></path>
                <path d="M85.8167,293.9207 C85.8167,289.7207 89.2207,286.3167 93.4207,286.3167 C97.6207,286.3167 101.0257,289.7207 101.0257,293.9207 C101.0257,296.8807 99.3297,299.4397 96.8607,300.6957 L96.8607,308.2237 C96.8607,310.1157 95.3127,311.6637 93.4207,311.6637 C91.5287,311.6637 89.9807,310.1157 89.9807,308.2237 L89.9807,300.6957 C87.5117,299.4397 85.8167,296.8807 85.8167,293.9207" id="Fill-23" fill="#AAAAAA"></path>
            </g>
            <g id="Group-40" transform="translate(199.373743, 127.657000)">
                <mask id="mask-2" fill="white">
                    <use xlink:href="#path-1"></use>
                </mask>
                <g id="Clip-27"></g>
                <polygon id="Fill-26" fill="#DEDEDE" mask="url(#mask-2)" points="15.6222571 285.714 248.073257 285.714 248.073257 53.263 15.6222571 53.263"></polygon>
                <polygon id="Fill-28" fill="#FFFFFF" mask="url(#mask-2)" points="31.1012571 270.236 263.552257 270.236 263.552257 37.785 31.1012571 37.785"></polygon>
                <polygon id="Stroke-29" stroke="#000000" stroke-width="1.5" mask="url(#mask-2)" points="31.1012571 270.236 263.552257 270.236 263.552257 37.785 31.1012571 37.785"></polygon>
                <polygon id="Fill-30" fill="#000000" mask="url(#mask-2)" points="31.1012571 81.229 263.552257 81.229 263.552257 37.786 31.1012571 37.786"></polygon>
                <polygon id="Stroke-31" stroke="#000000" stroke-width="1.515" mask="url(#mask-2)" points="31.1012571 81.229 263.552257 81.229 263.552257 37.786 31.1012571 37.786"></polygon>
                <path d="M226.460157,59.7892 C226.460157,56.5172 223.808157,53.8652 220.536157,53.8652 C217.264157,53.8652 214.612157,56.5172 214.612157,59.7892 C214.612157,63.0612 217.264157,65.7132 220.536157,65.7132 C223.808157,65.7132 226.460157,63.0612 226.460157,59.7892" id="Fill-32" fill="#FFFFFF" mask="url(#mask-2)"></path>
                <path d="M249.455857,59.7892 C249.455857,56.5172 246.803857,53.8652 243.531857,53.8652 C240.259857,53.8652 237.607857,56.5172 237.607857,59.7892 C237.607857,63.0612 240.259857,65.7132 243.531857,65.7132 C246.803857,65.7132 249.455857,63.0612 249.455857,59.7892" id="Fill-33" fill="#FFFFFF" mask="url(#mask-2)"></path>
                <polygon id="Fill-34" fill="#EE0000" mask="url(#mask-2)" points="59.7952571 193.837 219.094257 193.837 219.094257 127.301 59.7952571 127.301"></polygon>
                <polygon id="Stroke-35" stroke="#EE0000" stroke-width="3" stroke-linecap="round" stroke-linejoin="round" mask="url(#mask-2)" points="59.7952571 193.837 219.094257 193.837 219.094257 127.301 59.7952571 127.301"></polygon>
                <line x1="59.7952571" y1="104.2359" x2="80.5852571" y2="104.2359" id="Stroke-36" stroke="#EE0000" stroke-width="3" stroke-linecap="round" stroke-linejoin="round" mask="url(#mask-2)"></line>
                <line x1="59.7952571" y1="239.5767" x2="139.765257" y2="239.5767" id="Stroke-37" stroke="#EE0000" stroke-width="3" stroke-linecap="round" stroke-linejoin="round" mask="url(#mask-2)"></line>
                <line x1="59.7952571" y1="216.5111" x2="219.094257" y2="216.5111" id="Stroke-38" stroke="#EE0000" stroke-width="3" stroke-linecap="round" stroke-linejoin="round" mask="url(#mask-2)"></line>
                <line x1="59.7434571" y1="59.7892" x2="188.532457" y2="59.7892" id="Stroke-39" stroke="#FFFFFF" stroke-width="3" stroke-linecap="round" stroke-linejoin="round" mask="url(#mask-2)"></line>
            </g>
            <g id="Group-88" transform="translate(47.379000, 1.499000)">
                <mask id="mask-4" fill="white">
                    <use xlink:href="#path-3"></use>
                </mask>
                <g id="Clip-42"></g>
                <polygon id="Fill-41" fill="#000000" mask="url(#mask-4)" points="-23.815 46.734 129.96 46.734 129.96 4.924 -23.815 4.924"></polygon>
                <path d="M105.0587,20.9101 C107.7757,20.9101 109.9777,23.1121 109.9777,25.8291 C109.9777,28.5451 107.7757,30.7481 105.0587,30.7481 C102.3417,30.7481 100.1397,28.5451 100.1397,25.8291 C100.1397,23.1121 102.3417,20.9101 105.0587,20.9101" id="Fill-43" fill="#FFFFFF" mask="url(#mask-4)"></path>
                <polygon id="Fill-44" fill="#000000" mask="url(#mask-4)" points="-23.815 88.544 129.96 88.544 129.96 46.734 -23.815 46.734"></polygon>
                <path d="M105.0587,62.1668 C108.0807,62.1668 110.5307,64.6168 110.5307,67.6388 C110.5307,70.6608 108.0807,73.1108 105.0587,73.1108 C102.0367,73.1108 99.5867,70.6608 99.5867,67.6388 C99.5867,64.6168 102.0367,62.1668 105.0587,62.1668" id="Fill-45" fill="#FFFFFF" mask="url(#mask-4)"></path>
                <polygon id="Fill-46" fill="#000000" mask="url(#mask-4)" points="-23.815 130.354 129.96 130.354 129.96 88.544 -23.815 88.544"></polygon>
                <path d="M105.0587,103.9975 C108.0807,103.9975 110.5307,106.4475 110.5307,109.4695 C110.5307,112.4915 108.0807,114.9415 105.0587,114.9415 C102.0367,114.9415 99.5867,112.4915 99.5867,109.4695 C99.5867,106.4475 102.0367,103.9975 105.0587,103.9975" id="Fill-47" fill="#FFFFFF" mask="url(#mask-4)"></path>
                <polygon id="Fill-48" fill="#000000" mask="url(#mask-4)" points="-23.815 172.185 129.96 172.185 129.96 130.375 -23.815 130.375"></polygon>
                <path d="M105.0587,145.8076 C108.0807,145.8076 110.5307,148.2576 110.5307,151.2796 C110.5307,154.3016 108.0807,156.7516 105.0587,156.7516 C102.0367,156.7516 99.5867,154.3016 99.5867,151.2796 C99.5867,148.2576 102.0367,145.8076 105.0587,145.8076" id="Fill-49" fill="#FFFFFF" mask="url(#mask-4)"></path>
                <polygon id="Fill-50" fill="#EE0000" mask="url(#mask-4)" points="0.472 29.805 84.195 29.805 84.195 21.832 0.472 21.832"></polygon>
                <polygon id="Fill-51" fill="#EE0000" mask="url(#mask-4)" points="0.984 71.574 83.682 71.574 83.682 63.704 0.984 63.704"></polygon>
                <polygon id="Fill-52" fill="#EE0000" mask="url(#mask-4)" points="0.984 113.405 83.682 113.405 83.682 105.535 0.984 105.535"></polygon>
                <polygon id="Fill-53" fill="#EE0000" mask="url(#mask-4)" points="0.984 155.215 83.682 155.215 83.682 147.345 0.984 147.345"></polygon>
                <line x1="131.5549" y1="46.6586" x2="-27.4091" y2="46.6586" id="Stroke-54" stroke="#FFFFFF" stroke-width="1.5" mask="url(#mask-4)"></line>
                <line x1="131.5549" y1="88.7433" x2="-27.4091" y2="88.7433" id="Stroke-55" stroke="#FFFFFF" stroke-width="1.5" mask="url(#mask-4)"></line>
                <line x1="131.5549" y1="130.4358" x2="-27.4091" y2="130.4358" id="Stroke-56" stroke="#FFFFFF" stroke-width="1.5" mask="url(#mask-4)"></line>
                <line x1="131.5549" y1="172.1283" x2="-27.4091" y2="172.1283" id="Stroke-57" stroke="#FFFFFF" stroke-width="1.5" mask="url(#mask-4)"></line>
                <polygon id="Fill-58" fill="#FFFFFF" mask="url(#mask-4)" points="66.415 196.078 76.078 196.078 76.078 177.719 66.415 177.719"></polygon>
                <polygon id="Fill-59" fill="#FFFFFF" mask="url(#mask-4)" points="66.415 152.017 76.078 152.017 76.078 133.658 66.415 133.658"></polygon>
                <polygon id="Fill-60" fill="#FFFFFF" mask="url(#mask-4)" points="66.415 107.955 76.078 107.955 76.078 89.596 66.415 89.596"></polygon>
                <polygon id="Fill-61" fill="#EE0000" mask="url(#mask-4)" points="66.415 196.078 76.078 196.078 76.078 177.719 66.415 177.719"></polygon>
                <polygon id="Fill-62" fill="#EE0000" mask="url(#mask-4)" points="66.415 152.017 76.078 152.017 76.078 133.658 66.415 133.658"></polygon>
                <polygon id="Fill-63" fill="#EE0000" mask="url(#mask-4)" points="66.415 107.955 76.078 107.955 76.078 89.596 66.415 89.596"></polygon>
                <polygon id="Fill-64" fill="#C9C9C9" mask="url(#mask-4)" points="-0.868 105.281 124.645 105.281 124.645 71.15 -0.868 71.15"></polygon>
                <polygon id="Stroke-65" stroke="#898989" stroke-width="1.5" stroke-linecap="round" stroke-linejoin="round" mask="url(#mask-4)" points="-0.868 105.281 124.645 105.281 124.645 71.15 -0.868 71.15"></polygon>
                <polygon id="Fill-66" fill="#C9C9C9" mask="url(#mask-4)" points="-0.868 139.412 124.645 139.412 124.645 105.281 -0.868 105.281"></polygon>
                <polygon id="Stroke-67" stroke="#898989" stroke-width="1.5" stroke-linecap="round" stroke-linejoin="round" mask="url(#mask-4)" points="-0.868 139.412 124.645 139.412 124.645 105.281 -0.868 105.281"></polygon>
                <polygon id="Fill-68" fill="#C9C9C9" mask="url(#mask-4)" points="124.6447 173.5423 -0.8683 173.5423 -0.8683 139.4113 124.6447 139.4113"></polygon>
                <polygon id="Stroke-69" stroke="#898989" stroke-width="1.5" stroke-linecap="round" stroke-linejoin="round" mask="url(#mask-4)" points="124.6447 173.5423 -0.8683 173.5423 -0.8683 139.4113 124.6447 139.4113"></polygon>
                <polygon id="Fill-70" fill="#C9C9C9" mask="url(#mask-4)" points="-0.868 207.673 124.645 207.673 124.645 173.542 -0.868 173.542"></polygon>
                <polygon id="Stroke-71" stroke="#898989" stroke-width="2.339" stroke-linecap="round" stroke-linejoin="round" mask="url(#mask-4)" points="-0.868 207.673 124.645 207.673 124.645 173.542 -0.868 173.542"></polygon>
                <polygon id="Fill-72" fill="#FFFFFF" mask="url(#mask-4)" points="36.134 105.281 161.647 105.281 161.647 71.15 36.134 71.15"></polygon>
                <polygon id="Stroke-73" stroke="#898989" stroke-width="1.5" stroke-linecap="round" stroke-linejoin="round" mask="url(#mask-4)" points="36.134 105.281 161.647 105.281 161.647 71.15 36.134 71.15"></polygon>
                <path d="M52.4669,88.2155 C52.4669,90.4315 54.2639,92.2285 56.4799,92.2285 C58.6969,92.2285 60.4929,90.4315 60.4929,88.2155 C60.4929,85.9995 58.6969,84.2025 56.4799,84.2025 C54.2639,84.2025 52.4669,85.9995 52.4669,88.2155" id="Fill-74" fill="#EE0000" mask="url(#mask-4)"></path>
                <polygon id="Fill-75" fill="#FFFFFF" mask="url(#mask-4)" points="36.134 139.412 161.647 139.412 161.647 105.281 36.134 105.281"></polygon>
                <polygon id="Stroke-76" stroke="#898989" stroke-width="1.5" stroke-linecap="round" stroke-linejoin="round" mask="url(#mask-4)" points="36.134 139.412 161.647 139.412 161.647 105.281 36.134 105.281"></polygon>
                <path d="M52.021,122.3462 C52.021,124.8092 54.017,126.8052 56.48,126.8052 C58.943,126.8052 60.939,124.8092 60.939,122.3462 C60.939,119.8832 58.943,117.8872 56.48,117.8872 C54.017,117.8872 52.021,119.8832 52.021,122.3462" id="Fill-77" fill="#EE0000" mask="url(#mask-4)"></path>
                <polygon id="Fill-78" fill="#FFFFFF" mask="url(#mask-4)" points="36.134 173.542 161.647 173.542 161.647 139.411 36.134 139.411"></polygon>
                <polygon id="Stroke-79" stroke="#898989" stroke-width="1.5" stroke-linecap="round" stroke-linejoin="round" mask="url(#mask-4)" points="36.134 173.542 161.647 173.542 161.647 139.411 36.134 139.411"></polygon>
                <path d="M52.021,156.477 C52.021,158.94 54.017,160.936 56.48,160.936 C58.943,160.936 60.939,158.94 60.939,156.477 C60.939,154.014 58.943,152.018 56.48,152.018 C54.017,152.018 52.021,154.014 52.021,156.477" id="Fill-80" fill="#EE0000" mask="url(#mask-4)"></path>
                <polygon id="Fill-81" fill="#FFFFFF" mask="url(#mask-4)" points="36.134 207.673 161.647 207.673 161.647 173.542 36.134 173.542"></polygon>
                <polygon id="Stroke-82" stroke="#898989" stroke-width="2.339" stroke-linecap="round" stroke-linejoin="round" mask="url(#mask-4)" points="36.134 207.673 161.647 207.673 161.647 173.542 36.134 173.542"></polygon>
                <path d="M52.021,190.6077 C52.021,193.0707 54.017,195.0667 56.48,195.0667 C58.943,195.0667 60.939,193.0707 60.939,190.6077 C60.939,188.1447 58.943,186.1487 56.48,186.1487 C54.017,186.1487 52.021,188.1447 52.021,190.6077" id="Fill-83" fill="#EE0000" mask="url(#mask-4)"></path>
                <polygon id="Fill-84" fill="#EE0000" mask="url(#mask-4)" points="73.494 91.466 141.83 91.466 141.83 84.965 73.494 84.965"></polygon>
                <polygon id="Fill-85" fill="#EE0000" mask="url(#mask-4)" points="73.915 125.557 141.408 125.557 141.408 119.136 73.915 119.136"></polygon>
                <polygon id="Fill-86" fill="#EE0000" mask="url(#mask-4)" points="73.915 159.687 141.408 159.687 141.408 153.266 73.915 153.266"></polygon>
                <polygon id="Fill-87" fill="#EE0000" mask="url(#mask-4)" points="73.915 193.818 141.408 193.818 141.408 187.397 73.915 187.397"></polygon>
            </g>
            <g id="Group-120" transform="translate(214.996300, 159.637000)">
                <g id="Group-91" transform="translate(102.665600, 255.513300)">
                    <mask id="mask-6" fill="white">
                        <use xlink:href="#path-5"></use>
                    </mask>
                    <g id="Clip-90"></g>
                    <path d="M86.647,43.324 C86.647,67.251 67.25,86.648 43.323,86.648 C19.396,86.648 -5.68434189e-14,67.251 -5.68434189e-14,43.324 C-5.68434189e-14,19.397 19.396,0 43.323,0 C67.25,0 86.647,19.397 86.647,43.324" id="Fill-89" fill="#EE0000" mask="url(#mask-6)"></path>
                </g>
                <line x1="143.0114" y1="304.2432" x2="152.4904" y2="304.2432" id="Stroke-92" stroke="#FFFFFF" stroke-width="3" stroke-linecap="round"></line>
                <line x1="127.298" y1="304.2432" x2="134.486" y2="304.2432" id="Stroke-94" stroke="#FFFFFF" stroke-width="3" stroke-linecap="round"></line>
                <line x1="148.3916" y1="293.5219" x2="159.5346" y2="293.5219" id="Stroke-96" stroke="#FFFFFF" stroke-width="3" stroke-linecap="round"></line>
                <line x1="127.298" y1="293.5219" x2="141.783" y2="293.5219" id="Stroke-98" stroke="#FFFFFF" stroke-width="3" stroke-linecap="round"></line>
                <line x1="162.5343" y1="314.874" x2="170.7763" y2="314.874" id="Stroke-100" stroke="#FFFFFF" stroke-width="3" stroke-linecap="round"></line>
                <line x1="127.298" y1="314.874" x2="154.008" y2="314.874" id="Stroke-102" stroke="#FFFFFF" stroke-width="3" stroke-linecap="round"></line>
                <line x1="157.244" y1="282.8007" x2="171.115" y2="282.8007" id="Stroke-104" stroke="#FFFFFF" stroke-width="3" stroke-linecap="round"></line>
                <line x1="127.298" y1="282.8007" x2="150.773" y2="282.8007" id="Stroke-106" stroke="#FFFFFF" stroke-width="3" stroke-linecap="round"></line>
                <line x1="120.8631" y1="314.8405" x2="120.8631" y2="283.0285" id="Stroke-108" stroke="#FFFFFF" stroke-width="3" stroke-linecap="round"></line>
                <path d="M11.5,21.2837 C7.16,27.2707 3.308,33.6307 0,40.3087 L0,47.4227 C4.06,38.0917 9.181,29.3257 15.219,21.2837 L11.5,21.2837 Z" id="Fill-110" fill="#000000"></path>
                <polyline id="Stroke-112" stroke="#000000" stroke-width="3" stroke-linecap="round" points="299.4389 1.1453 291.1779 9.1163 299.4389 17.0883"></polyline>
                <polyline id="Stroke-114" stroke="#000000" stroke-width="3" stroke-linecap="round" points="316.3213 17.0879 324.5823 9.1169 316.3213 1.1449"></polyline>
                <line x1="311.3995" y1="0" x2="304.1705" y2="19.456" id="Stroke-116" stroke="#000000" stroke-width="3" stroke-linecap="round"></line>
                <path d="M0.0003,21.2837 L0.0003,40.3087 C3.3073,33.6307 7.1593,27.2707 11.5003,21.2837 L0.0003,21.2837 Z" id="Fill-118" fill="#A9A9A9"></path>
            </g>
        </g>
    </g>
</svg>